<svg xmlns="http://www.w3.org/2000/svg" width="207.5" height="237.5" viewBox="0 0 207.5 237.5"><ellipse cx="103.033" cy="68.457" rx="23.621" ry="22.592" fill="none" stroke="#000" stroke-width=".887"/><path d="M101.582 45.47c-5.34 14.956-5.493 29.91-2.058 44.866M79.148 68.932c15.14-2.502 30.963-2.502 47.748 1.03" fill="none" stroke="#999"/><path d="M98.375 102.903c-4.42 7.833-7.925 15.766-11.525 23.873 3.744 8.634 7.62 17.004 11.114 26.138-.37 3.39.573 7.043 1.543 10.702 1.993.128 4.22-.448 6.483-1.132l-2.16-2.367 2.47 2.058c1.706.33 3.06-.575 4.218-2.16l-2.778-2.985 4.527 3.704c2.166.164 3.802-1.438 5.145-4.013l-5.248-6.173 1.647 1.543 2.265-2.263c-2.28-1.663-4.407-3.172-7.204-5.35l-5.144 4.012 2.78-2.677c-3.995-5.96-7.325-11.808-9.674-17.493 2.318-7.046 6.26-12.47 9.88-18.214M97.964 90.554l.206 3.91c-1.44 1.558-2.547 3.378-2.882 5.763l.412 6.895" fill="none" stroke="#000"/><path d="M90.663 137.232c-1.23 3.667-2.58 6.474-3.638 11.35-1.614 4.41.02 7.453 2.037 10.333 2.183 1.37 4.366 2.505 6.55 2.91 3.575 3.192 8.21 8.258 10.332 12.516-7.252.244-14.65-2.45-21.902-4.292 2.346 11.088 8.755 20.996 17.1 30.343 3.425-4.85 2.005-9.7.29-14.552l-1.746-.946c6.385-1.678 12.048-1.452 18.627-4.875-.877-7.123-5.418-12.306-9.46-17.754M106.71 90.76l-.308 6.483c5.608 9.513 9.58 19.13 10.805 28.916.603 8.49-.89 15.268-3.293 21.3M92.12 161.244l-.292 9.896M99.54 165.9l-.145 7.568" fill="none" stroke="#000"/><path d="M88.19 182.49c-3.505 9.34-8.542 16.838-13.97 23.867 12.246 1.256 24.27 1.614 35.362-1.746-4.147-4.952-11.617-5.193-18.19-6.038 1.087-1.683 1.772-3.703 2.473-6.767" fill="none" stroke="#000"/><path d="M101.905 160.516l8.26-6.585" fill="none" stroke="#999"/></svg>