<svg xmlns="http://www.w3.org/2000/svg" width="207.5" height="237.5" viewBox="0 0 207.5 237.5"><ellipse cx="104.779" cy="59.726" rx="23.621" ry="22.592" fill="none" stroke="#000" stroke-width=".887"/><path d="M103.328 36.74c-5.34 14.955-5.493 29.91-2.058 44.865M80.89 60.2c15.14-2.5 30.964-2.5 47.75 1.03" fill="none" stroke="#999"/><path d="M99.2 82.425v5.866c-3.554 3.73-3.045 4.956-3.19 6.587-1.78 11.114-3.37 23.086-5.66 31.9 3.468 8.785 6.735 17.408 8.85 25.11l.72 12.347c2.263.89 4.527.693 6.79.515l-2.263-3.09 2.16 2.677c2.34.487 2.96-.746 4.014-1.544l-1.542-2.778 3.602 4.322c2.14.042 3.45-1.245 4.218-3.396l-3.705-7.1 1.338.927c.47.133.75.686 2.266-1.544-2.593-2.975-5.09-4.98-6.586-6.585-3.668.666-4.557 1.887-5.558 3.087 1-1.176 2.473-2.547 3.808-2.676-4-8.325-6.71-15.105-9.364-21.816 2.575-7.48 5.088-14.898 7.923-22.64" fill="none" stroke="#000"/><path d="M103.006 160.734l7.41-4.116" fill="none" stroke="#999"/><path d="M91.687 133.465c-3.852 6.884-5.737 13.55.205 19.346-.687 10.55-.978 21.163-4.836 31.18-1.725 7.357-5.152 14.286-9.055 21.097 10.463 3.16 21.383 4.226 33.754-1.338-2.457-4.71-6.258-6.4-10.908-6.175-2.28.11-4.72.458-6.483-.206 3.49-10.16 6.322-20.624 6.277-32.416" fill="none" stroke="#000"/><path d="M89.63 172.26l-2.986-8.44 3.91.722m10.806 2.572c2.54 1.074 4.706 1.017 6.997 1.338.202-.646.205-1.556-.412-3.293m8.233-2.162c1.84 5.246 2.928 10.464 3.395 15.436-7.533-.862-14.54-.367-16.464-2.47 3.083 6.22 5.122 12.16 4.114 17.288-3.567-1.496-7.24-4.094-9.467-7.204m14.203-38.382c8.84-12.307 9.19-26.215 3.497-41.265-2.607-6.45-5.213-11.78-7.82-16.874l.308-6.997m.618 6.995c4.184 5.124 6.122 10.45 7.306 15.847" fill="none" stroke="#000"/><path d="M116.898 136.45c-3.926-.026-6.807.472-13.275-.824" fill="none" stroke="#999"/></svg>