<svg xmlns="http://www.w3.org/2000/svg" width="207.5" height="237.5" viewBox="0 0 207.5 237.5"><ellipse cx="103.418" cy="63.285" rx="23.621" ry="22.592" fill="none" stroke="#000" stroke-width=".887"/><path d="M101.874 40.543c-5.34 14.956-5.493 29.91-2.058 44.866M79.44 64.004c15.14-2.502 30.963-2.502 47.748 1.03" fill="none" stroke="#999"/><path d="M97.758 85.41v6.585c-1.904 2.32-1.907 7.256-1.647 12.554.535 5.247.496 10.114.208 14.816-.768 5.122-2.253 10.04-4.94 14.612-1.723 3.282-2.568 5.39-3.498 7.614-1.74 3.636-2.032 7.272-.207 10.908-1.12 5.062-3.064 9.137-5.556 12.554-3.566 5.49-8.603 8.53-13.79 11.32-2.746 1.08-4.902 1.732-9.672 2.675.053 11.243 1.87 19.763 4.94 26.343 8.653 2.546 14.65 1.82 19.757 0-.305-4.948-3.61-7.395-8.85-8.232-2.253-3.4-2.943-7.027-3.293-10.7 5.07-2.507 10.72-4.093 15.845-8.645 3.727-5.223 5.072-10.887 9.055-19.346 5.393 1.697 8.652-.017 11.32-2.676 7.013-8.06 11.42-17.47 10.497-29.636l-12.348-13.38" fill="none" stroke="#000"/><path d="M107.225 85.41l-.206 8.85c6.68 6.948 12.29 16.415 17.04 25.872 1.56-1.406 2.214-3.468 3.42-4.875l3.057.437c-2.718-1.682-4.837-3.463-5.24-5.53.8-2.486.893-4.9 3.493-7.567.73.112 1.457.066 2.184.727l-.145 3.056 3.636-6.257c2.3.12 4.64.188 5.24 2.765l-2.33 6.112 1.892-2.91c1.63.648 2.92 1.49 3.2 2.91l-1.745 3.347 2.182-2.765c1.286 1.678 2.704 3.25 3.057 5.675-2.918 1.754-4.477 3.733-10.624 4.948-2.935 5.66-6.605 8.19-10.478 11.788l-6.985-5.82m-18.78 33.224c5.478 6.55 10.57 13.103 13.07 19.654 3.124 7.075 3.933 14.505 3.5 22.126 6.214-1.124 11.925-2.754 16.77-5.248 7.31-3.84 11.45-8.474 13.276-13.686-6.653-1.432-14.645.587-21.3 3.808-.997-4.65-2.515-10.758-5.97-16.773-3.36-5.498-6.72-10.07-10.082-14.2M96.523 93.847c-.934-.988-2.067-.982-3.19-1.03-8.13 3.6-15.347 8.8-22.74 13.687l-1.03 22.125c-1.06.963-1.763 2.283-1.853 4.217l-1.852.514-2.16 6.69c1.4 3.5 3.54 3.355 5.556 3.807l1.132-8.026-.926 8.233c1.92 2.118 3.84 1.87 5.762 2.16l.515-9.672-.103 9.983c3.156 1.5 6.425 1.993 9.776 1.75l-.412-9.674c.247-1.576.26-3.346-.648-5.884l-5.145-.31c-.072-7.183-.156-14.392.34-20.253 5.32-2.806 10.66-5.586 16.36-7.82" fill="none" stroke="#000"/><path d="M67.607 133.362c1.825.293 2.7 1.22 2.78 2.676 1.67-.46 3.398-.635 5.453.823 4.187-.062 6.675.647 8.746 1.545" fill="none" stroke="#000"/><path d="M79.03 132.333l-4.194.218-.746 2.768m-4.455-5.83c.938-.094 1.85.027 2.603 1.404" fill="none" stroke="#000"/><path d="M132.95 107.328l7.616 6.585m-47.85 17.907c5.803 7.29 13.862 9.317 22.947 8.95" fill="none" stroke="#999"/></svg>