<svg xmlns="http://www.w3.org/2000/svg" width="207.5" height="237.5" viewBox="0 0 207.5 237.5"><ellipse cx="104.197" cy="60.017" rx="23.621" ry="22.592" fill="none" stroke="#000" stroke-width=".887"/><path d="M102.746 37.03c-5.34 14.956-5.493 29.91-2.058 44.866M80.312 60.492c15.14-2.502 30.963-2.502 47.748 1.03" fill="none" stroke="#999"/><path d="M102.183 90.246c-3.436.322-8.673 5.33-13.378 8.952-3.23 3.656-7.58 7.872-12.45 12.35.862 10.728 1.57 20.688 2.16 30.046-1.565 1.095-1.496 6.344-2.573 9.88 1.68.796 3.362 1.36 5.043 1.337v-2.983l.308 3.292c1.523.226 3.12.377 5.454-.206l-1.03-4.116 2.985 5.35c2.96-.204 3.697.045 5.146-.41-.24-4.374-.48-6.026-.72-8.028l.823 1.647c.368-.073.724-.133 2.16-1.544l-3.6-7.717-3.705.926-2.47.617 3.705-1.75c-2.072-2.11-3.25-14.044-4.836-21.507l16.773-10.6" fill="none" stroke="#000"/><path d="M107.98 82.368v7.86c3.61 8.748 8.926 16.642 10.908 26.836 1.408 8.102.144 14.696-1.74 20.605-1.46 2.92-1.878 5.34-5.53 9.312 7.47 4.85 15.037 8.86 18.302 16.864-1.222 1.994-.91 2.375-6.513 5.984-1.462 1.067-4.203 2.134-7.86 3.202l3.93.145c3.17 2.814 4.522 5.627 6.113 8.44.634 2.384 1.673 4.444 1.018 7.86-16.497-5.954-19.208-14.382-25.758-22.12 5.89-1.57 11-3.432 14.698-5.822l-11.205-7.276c-1.925 1.16-2.466 1.214-3.056 1.308-1.756.343-3.685.455-6.258-.29l-1.31-1.893" fill="none" stroke="#000"/><path d="M87.982 154.87c-4.158 5.967-5.508 10.416-11.73 18.007-3.768 5.664-10.846 12.892-16.26 17.185 1.27 6.877 4.435 12.048 8.44 16.464 7.62.97 13.03.457 19.14.412 2.577-.683 2.345-1.014 2.88-1.44-2.495-5.337-6.375-6.056-10.496-5.97-1.522-.62-3.627-2.99-5.97-6.07 4.022-3.916 8.38-11.205 12.658-17.7l10.188-19.45M97.964 108.562c.5 10.986-3.22 19.986-7.306 28.813M98.993 82.22c-.04 3.053.66 5.96-.618 9.26" fill="none" stroke="#000"/><path d="M94.774 128.32c5.536 7.773 13.198 9.702 22.02 8.438M78.875 148.9l4.322.206M83.97 147.768c1.93-.198 4.623.11 5.453-.823" fill="none" stroke="#999"/><path d="M119.007 134.134c4.453.512 8.792.974 12.297 1.08l.978 2.882 6.226 1.492c1.254-1.395 3.147-4.572 3.447-5.763l-8.284-.823 8.44.154c.978-1.163 1.557-2.252 1.85-4.785l-9.62-.565 9.52.515c1.182-3.11 1.765-6.1 1.85-10.033-3.076-.012-6.143-.605-9.62.05-2.335 2.555-1.7 7.088-2.522 10.652-1.093.205-2.235.54-2.933-.31l-.308-9.57c1.633-.234 3.293-.428 5.196-.257M128.526 131.304c-.21.977-.475 1.896-.154 3.396M119.676 125.284h10.805" fill="none" stroke="#000"/><path d="M133.414 129.863l-.257 2.367-1.338 2.933" fill="none" stroke="#000"/></svg>