<svg xmlns="http://www.w3.org/2000/svg" width="207.5" height="237.5" viewBox="0 0 207.5 237.5"><ellipse cx="100.996" cy="53.322" rx="23.621" ry="22.592" fill="none" stroke="#000" stroke-width=".887"/><path d="M99.545 30.336c-5.34 14.955-5.493 29.91-2.058 44.865m-20.38-21.404c15.14-2.5 30.964-2.5 47.75 1.03" fill="none" stroke="#999"/><path d="M96.214 75.84l-.103 5.247c-1.09 1.934-2.767 2.697-2.057 8.233.53 12.844.724 25.664-6.277 37.97-2.303 4.667-3.563 9.578-1.234 15.333 0-.96-7.753 15.03-14.92 29.74-3.635 6.448-7.722 12.897-12.453 19.345 2.255 5.578 4.568 11.12 9.775 14.818 6.035.376 11.318.377 16.26.206l7.82-2.367c-3.34-7.25-7.484-7.288-11.63-7.306l-3.806-.104-3.91-3.91c10.974-21.55 15.89-33.732 20.99-46.204 2.585 1.382 5.512 1.05 8.645-.308 2.682-2.554 4.998-5.2 6.586-8.027 2.228-4.325 4.31-8.83 5.454-14.51" fill="none" stroke="#000"/><path d="M91.275 120.705c5.4 7.234 12.85 9.74 21.816 8.747" fill="none" stroke="#999"/><path d="M100.632 96.34c2.673 7.878 3.414 15.596 3.784 23.283 11.186 3.32 18.748 5.91 33.616 10.915 2.345-1.01 2.063-1.54 2.402-2.183.796-1.08.778-2.39.218-3.857l-3.566.073 3.348-.144c.872-1.542 1.16-3.018.29-4.366l-3.492-.073c2.193-.717 4.746-1.217 6.04-2.474.273-1.655-.105-3.39-1.383-5.24-3.263-.538-5.54.4-8.078.947l2.328-.873c-.642-.796-.74-1.81-2.255-2.256-1.967.398-4.043.952-7.058 2.84-.605 2.613.05 4.976 1.382 7.203l-1.82-2.984-13.534-3.64c.106-12.23-2.944-22.355-8.66-30.705l-.072-6.403" fill="none" stroke="#000"/><path d="M135.777 116.422c-.79 1.38.187 2.254.655 3.274-1.11 1.66-.36 2.855 0 4.147" fill="none" stroke="#999"/><path d="M115.403 113.438c-2.622-23.21-6.907-21.882-10.624-30.924M111.032 137.993c7.084 5.705 13.95 11.567 19.14 18.625-3.765 2.927-7.778 5.483-13.17 5.97 3.796 5.086 8.758 9.007 8.95 17.698-9.73-1.08-17.704-9.54-24.695-22.124 5.292-1.563 12.254-3.02 13.48-4.837l-13.172-5.762M92.846 87.97c-5.045 5.19-10.09 11.244-15.135 16.955.146 8.595.912 16.585 2.257 24.012l2.474.436c-1.31-.962-2.79-.568-4.292 0-.28 1.91-.087 2.643 0 3.64-.9.227-1.832.297-2.547 1.454-.43 1.87-.795 3.76-.654 5.82 1.892 1.72 3.784 2.424 5.676 3.203l.073-8.295-.29 8.44c2.398 1.192 3.405 1.147 4.073.8" fill="none" stroke="#000"/><path d="M78.876 133.594l1.528.8c1.5-.882 2.667-.604 3.783-.145M89.063 122.97c-1.146-4.074-2.29-8.148-2.11-14.116 2.203-2.843 4.41-4.763 6.62-6.257" fill="none" stroke="#000"/></svg>