<svg xmlns="http://www.w3.org/2000/svg" width="207.5" height="237.5" viewBox="0 0 207.5 237.5"><ellipse cx="105.579" cy="65.094" rx="23.621" ry="22.592" fill="none" stroke="#000" stroke-width=".887"/><path d="M104.128 42.107c-5.34 14.956-5.493 29.91-2.058 44.866M81.694 65.57c15.14-2.503 30.963-2.503 47.748 1.03" fill="none" stroke="#999"/><path d="M103.18 93.137c-3.426-.14-6.127.585-8.587 1.6-6.777 4.615-14.083 9.018-21.83 13.244-.67 8.78-1.325 17.56-2.182 26.34-2.452 4.03-3.095 8.055-4.073 12.08 2.497 2.29 4.313 1.63 6.257 1.747l-.436-3.056.436 2.91c1.487.784 2.83 1.207 3.93 1.02l.436-4.22 1.6 5.967c1.896.05 3.396.36 4.366-.146 1.19-1.72.224-5.596 0-8.73l1.237 1.128c1.64-.857 1.506-.826 2.11-1.165-.876-2.898-1.776-5.783-3.602-8.113-2.967-.192-4.21.31-6.292.472l4.11-.582.183-19.028c6.21-4.054 12.76-7.072 19.938-8.222" fill="none" stroke="#000"/><path d="M98.522 107.253c.182 9 .344 17.998-3.493 26.195l-2.955 5.214c-2.18 5.018-3.91 9.955-.685 18.216 6.7 5.03 13.11 9.43 16.864 17.137 3.266 5.19 5.83 10.998 7.73 16.19 1.17 5.698 1.353 11.36 1.165 17.9 5.965-1.553 11.93-3.508 17.9-6.696 5.572-4.02 9.387-8.388 12.222-12.954-2.398-.997-5.416-1.374-9.46-.727-3.963.974-6.54 2.41-8.876 3.93-4.01-12.395-11.375-25.023-20.597-35.77 4.377-2.096 5.505-5.406 7.43-8.635 5.8-10.156 5.068-20.586 2.397-31.562L108.854 94.3l.437-6.547m-9.165-.08l.103 5.145" fill="none" stroke="#000"/><path d="M95.288 132.745c6.697 7.45 14.264 9.857 22.33 9.364" fill="none" stroke="#999"/><path d="M90.966 157.03c-2.56 4.774-4.78 9.718-9.98 13.17-2.895 1.36-5.89 2.62-9.057 3.706-2.854.298-5.827.354-8.954.103-.102 5.52.252 8.832.41 16.874 1.095 3.263 1.723 7.505 3.088 10.496 6.505 1.96 11.843 1 17.288.31.285-.3.4-1.278.412-2.676-1.234-3.01-3.252-5.3-8.027-5.042-1.577-2.744-2.64-6.004-3.396-9.57 5.514-.044 9.433-1.682 12.76-3.91 3.274-2.28 5.39-5.486 7.308-8.85l4.835-9.158m22.332-41.264c3.074 2.946 7.04 5.3 10.908 7.717 3.636-3.366 7.272-7.593 10.907-9.98.78.96 1.21 1.403 1.44 1.542l6.175-2.883c.47-2.2.044-4.25-1.132-6.174l-6.07 3.807 5.66-3.806c-.11-2.74-.854-4.84-2.06-6.483l-7.203 5.867 6.895-5.762c-.818-2.703-2.58-5.564-5.042-8.54-2.684 1.208-4.85 3.97-6.998 6.79 1.715 4.035 3.43 6.377 5.145 8.233.335 2.3-.715 3.045-2.572 2.88-2.024-2.263-3.91-4.664-5.66-7.202.764-1.784 1.743-2.7 2.78-3.396" fill="none" stroke="#000"/><path d="M112.06 99.92c5.715 5.57 11.322 10.5 17.29 17.595 1.403-.93 2.857-2.166 4.527-4.734m7.82 5.764c-.355-1.316-.062-1.983.103-2.778-1.51-.824-2.332-1.647-2.47-2.47m-2.47 4.116c.425 1.612 1.562 2.195 2.882 3.087" fill="none" stroke="#000"/><path d="M70.093 144.013l7.027-.622" fill="none" stroke="#999"/></svg>